<svg id="Capa_1" enable-background="new 0 0 512 512" height="512" viewBox="0 0 512 512" width="512" xmlns="http://www.w3.org/2000/svg"><g><path d="m359.663 15.383c-38.65 0-75.616 14.672-103.663 40.716-28.047-26.044-65.013-40.716-103.663-40.716-83.999 0-152.337 68.338-152.337 152.337 0 47.592 13.364 94.494 39.72 139.404 20.788 35.422 49.663 69.653 85.824 101.743 61.123 54.242 121.438 83.428 123.975 84.644l6.481 3.105 6.481-3.105c2.538-1.216 62.852-30.402 123.975-84.644 36.161-32.09 65.036-66.321 85.824-101.743 26.356-44.91 39.72-91.812 39.72-139.404 0-83.999-68.338-152.337-152.337-152.337zm-207.326 30c35.418 0 69.076 15.344 92.345 42.097l11.318 13.013 11.318-13.013c23.269-26.753 56.927-42.097 92.345-42.097 67.457 0 122.337 54.88 122.337 122.337 0 24.358-4.002 48.587-11.925 72.463h-53.568l-52.972-81.981-58.494 138.869-109.012-173.998-63.305 117.11h-90.799c-7.923-23.876-11.925-48.104-11.925-72.463 0-67.457 54.88-122.337 122.337-122.337zm214.757 340.557c-46.772 41.626-94.188 68.293-111.1 77.206-16.829-8.855-63.824-35.262-110.537-76.717-33.802-29.997-60.672-61.787-79.864-94.489-4.228-7.204-8.076-14.459-11.556-21.756h96.573l47.33-87.557 112.335 179.303 58.872-139.766 31.028 48.019h57.787c-3.424 7.181-7.204 14.321-11.353 21.412-19.1 32.643-45.852 64.385-79.515 94.345z"/></g></svg>